<svg width="72" height="72" viewBox="0 0 72 72" fill="none" xmlns="http://www.w3.org/2000/svg">
<path fill-rule="evenodd" clip-rule="evenodd" d="M40.1806 21.0094H51.4754C51.7331 24.1787 53.0747 26.4159 54.7637 27.9086C56.3006 29.267 58.087 29.9774 59.5159 30.2597L62.9461 67.1344H53.4778L47.2837 36.1638C47.1786 35.6379 46.7168 35.2594 46.1806 35.2594C45.6443 35.2594 45.1826 35.6379 45.0774 36.1638L38.8833 67.1344H29.4151L31.7775 41.7386L29.5372 41.5302L27.1366 67.3357C27.0344 68.4351 27.8995 69.3844 29.0036 69.3844H39.1907C40.0845 69.3844 40.854 68.7535 41.0293 67.8771L46.1806 42.1208L51.3318 67.8771C51.5071 68.7535 52.2766 69.3844 53.1704 69.3844H63.3576C64.4617 69.3844 65.3268 68.4351 65.2245 67.3357L60.864 20.4607C60.7744 19.4966 59.9653 18.7594 58.9971 18.7594H40.1806V21.0094ZM59.2955 27.8907L58.6554 21.0094H53.7343C53.9791 23.4964 55.0305 25.1416 56.2537 26.2227C57.2266 27.0826 58.3357 27.608 59.2955 27.8907Z" fill="black"/>
<path fill-rule="evenodd" clip-rule="evenodd" d="M22.5556 2.27146C21.9778 2.35937 21.4451 2.71472 21.159 3.28691L20.3603 4.8844H18.509C17.7069 4.8844 16.931 5.17007 16.3204 5.6902L7.40915 13.2813C6.60909 13.9628 6.52539 15.1688 7.22364 15.9543L12.2365 21.5937C12.9046 22.3454 14.0468 22.4361 14.8252 21.7992L16.5556 20.3834V40.5094C16.5556 41.5449 17.3951 42.3844 18.4306 42.3844H39.4306C40.4661 42.3844 41.3056 41.5449 41.3056 40.5094V20.3834L42.0463 20.9895L43.4711 19.2481L40.893 17.1387C40.5565 16.8634 40.0916 16.8066 39.6988 16.9928C39.306 17.1789 39.0556 17.5747 39.0556 18.0094V40.1344H30.0556V10.4684L30.5613 11.0373C31.278 11.8436 32.5257 11.8803 33.2885 11.1175L37.2716 7.1344H39.3522C39.6195 7.1344 39.8782 7.22962 40.0817 7.403L48.7014 14.7457L44.5898 19.3714L46.2714 20.8662L50.6375 15.9543C51.3358 15.1688 51.2521 13.9628 50.452 13.2813L41.5407 5.6902C40.9302 5.17007 40.1543 4.8844 39.3522 4.8844H37.5009L36.7021 3.28691C36.416 2.71472 35.8834 2.35937 35.3056 2.27146V2.2594H35.21C35.0859 2.24695 34.9602 2.24679 34.8349 2.2594H23.0263C22.901 2.24679 22.7753 2.24695 22.6512 2.2594H22.5556V2.27146ZM26.6314 4.5094L28.8939 6.10644C28.9062 6.11517 28.9185 6.12403 28.9306 6.13301C28.9427 6.12403 28.9549 6.11517 28.9673 6.10644L31.2298 4.5094H26.6314ZM27.8056 10.4684L27.2999 11.0373C26.5831 11.8436 25.3355 11.8803 24.5726 11.1175L20.5896 7.1344H18.509C18.2416 7.1344 17.983 7.22962 17.7795 7.403L9.15975 14.7457L13.679 19.8299L16.9682 17.1387C17.3046 16.8634 17.7695 16.8066 18.1623 16.9928C18.5552 17.1789 18.8056 17.5747 18.8056 18.0094V40.1344H27.8056V10.4684ZM22.4244 5.78726L22.9764 4.68345L27.2536 7.70268L25.8824 9.24524L22.4244 5.78726ZM34.8848 4.68345L35.4367 5.78726L31.9788 9.24524L30.6076 7.70268L34.8848 4.68345Z" fill="black"/>
</svg>
