<svg width="56" height="51" viewBox="0 0 56 51" fill="none" xmlns="http://www.w3.org/2000/svg">
<path d="M4.282 0.898315C3.14837 0.904877 2.06303 1.35812 1.26142 2.15973C0.459806 2.96135 0.0065613 4.04668 0 5.18032V14.9403C0.00631484 16.0735 0.45967 17.1583 1.26151 17.959C2.06334 18.7598 3.14884 19.2116 4.282 19.2163H6.982V46.1863C6.98673 47.32 7.43898 48.4059 8.24034 49.2079C9.0417 50.0098 10.1273 50.4628 11.261 50.4683H44.742C45.8756 50.4618 46.961 50.0085 47.7626 49.2069C48.5642 48.4053 49.0174 47.32 49.024 46.1863V19.2163H51.724C52.8561 19.21 53.9401 18.7575 54.7406 17.9569C55.5412 17.1564 55.9937 16.0724 56 14.9403V5.18032C55.9934 4.04668 55.5402 2.96135 54.7386 2.15973C53.937 1.35812 52.8516 0.904877 51.718 0.898315H36.373C35.9779 0.89858 35.5991 1.05565 35.3197 1.33502C35.0403 1.61439 34.8833 1.99322 34.883 2.38832C34.8612 4.19903 34.1265 5.92819 32.8384 7.20091C31.5502 8.47363 29.8123 9.18736 28.0015 9.18736C26.1906 9.18736 24.4528 8.47363 23.1646 7.20091C21.8765 5.92819 21.1418 4.19903 21.12 2.38832C21.1197 1.99322 20.9627 1.61439 20.6833 1.33502C20.4039 1.05565 20.0251 0.89858 19.63 0.898315H4.282ZM4.282 3.87932H18.441C18.7497 6.19594 19.8891 8.32164 21.6475 9.86121C23.4058 11.4008 25.6634 12.2495 28.0005 12.2495C30.3376 12.2495 32.5952 11.4008 34.3535 9.86121C36.1119 8.32164 37.2513 6.19594 37.56 3.87932H51.719C51.8909 3.87492 52.0619 3.90554 52.2216 3.96931C52.3814 4.03309 52.5264 4.12869 52.648 4.25029C52.7696 4.37189 52.8652 4.51696 52.929 4.67667C52.9928 4.83638 53.0234 5.0074 53.019 5.17932V14.9393C53.0237 15.1113 52.9933 15.2825 52.9296 15.4423C52.8659 15.6021 52.7703 15.7473 52.6487 15.869C52.527 15.9906 52.3818 16.0862 52.222 16.1499C52.0621 16.2136 51.891 16.244 51.719 16.2393H47.533C47.1379 16.2396 46.7591 16.3966 46.4797 16.676C46.2003 16.9554 46.0433 17.3342 46.043 17.7293V46.1863C46.0474 46.3582 46.0168 46.5292 45.953 46.689C45.8892 46.8487 45.7936 46.9937 45.672 47.1153C45.5504 47.2369 45.4054 47.3325 45.2456 47.3963C45.0859 47.4601 44.9149 47.4907 44.743 47.4863H11.257C11.085 47.491 10.9139 47.4606 10.754 47.3969C10.5942 47.3332 10.449 47.2376 10.3273 47.116C10.2057 46.9943 10.1101 46.8491 10.0464 46.6893C9.98274 46.5295 9.95232 46.3583 9.957 46.1863V17.7293C9.95673 17.3342 9.79967 16.9554 9.5203 16.676C9.24092 16.3966 8.86209 16.2396 8.467 16.2393H4.282C4.11001 16.244 3.93886 16.2136 3.77902 16.1499C3.61918 16.0862 3.474 15.9906 3.35233 15.869C3.23067 15.7473 3.13508 15.6021 3.07141 15.4423C3.00774 15.2825 2.97732 15.1113 2.982 14.9393V5.18032C2.97733 5.00823 3.00774 4.837 3.0714 4.67705C3.13505 4.51711 3.2306 4.3718 3.35223 4.24998C3.47386 4.12816 3.61903 4.03238 3.77888 3.96848C3.93872 3.90459 4.10991 3.87391 4.282 3.87832V3.87932Z" fill="black"/>
</svg>
