<svg width="72" height="72" viewBox="0 0 72 72" fill="none" xmlns="http://www.w3.org/2000/svg">
<path d="M53.2372 34.6499C52.8421 34.0417 52.0288 33.8689 51.4207 34.264C50.8125 34.659 50.6397 35.4723 51.0348 36.0805L56.0714 43.8341C56.4665 44.4423 57.2797 44.615 57.8879 44.22C58.4961 43.8249 58.6688 43.0117 58.2738 42.4035L53.2372 34.6499Z" fill="black"/>
<path d="M27.9752 51.0595C27.5802 50.4514 26.7669 50.2786 26.1587 50.6737C25.5505 51.0687 25.3778 51.882 25.7728 52.4902L30.8095 60.2438C31.2045 60.852 32.0178 61.0247 32.626 60.6297C33.2341 60.2346 33.4069 59.4213 33.0118 58.8132L27.9752 51.0595Z" fill="black"/>
<path fill-rule="evenodd" clip-rule="evenodd" d="M5.5104 4.7604C6.15154 4.11926 7.01931 3.75629 7.926 3.75H20.2028C20.519 3.75 20.8223 3.87564 21.046 4.09928C21.2696 4.32291 21.3953 4.62623 21.3953 4.9425C21.3953 6.40281 21.9754 7.80332 23.008 8.83592C24.0406 9.86852 25.4411 10.4486 26.9014 10.4486C28.3617 10.4486 29.7622 9.86852 30.7948 8.83592C31.8274 7.80332 32.4075 6.40281 32.4075 4.9425C32.4075 4.62623 32.5331 4.32291 32.7568 4.09928C32.9804 3.87564 33.2837 3.75 33.6 3.75H45.882C46.7887 3.75629 47.6565 4.11926 48.2976 4.7604C48.9387 5.40154 49.3017 6.26931 49.308 7.176V14.9858C49.3027 15.8925 48.9399 16.7606 48.2985 17.4016C47.6571 18.0426 46.7888 18.4048 45.882 18.4095H43.725V28.4523C44.5717 28.5991 45.3674 29.0278 45.9601 29.7062L47.834 28.489C53.9351 24.5259 62.0938 26.2588 66.0569 32.3598C70.02 38.4608 68.2867 46.6194 62.1856 50.5826L60.3118 51.7998C61.1029 53.5062 60.5399 55.5789 58.9167 56.6333C57.2935 57.6877 55.1709 57.3596 53.9335 55.9431L44.6618 61.9658C45.4529 63.6722 44.8898 65.7449 43.2667 66.7993C41.6435 67.8537 39.5209 67.5256 38.2834 66.1091L37.3302 66.7283C31.2291 70.6914 23.0704 68.9585 19.1073 62.8575C15.1442 56.7565 16.8775 48.5978 22.9786 44.6347L23.9317 44.0155C23.8408 43.8193 23.7677 43.6183 23.7121 43.4145H13.5068C12.6 43.4092 11.7319 43.0464 11.0909 42.405C10.4499 41.7636 10.0877 40.8953 10.083 39.9885V18.4095H7.926C7.01921 18.4048 6.15088 18.0426 5.50947 17.4016C4.86805 16.7606 4.50532 15.8925 4.5 14.9858V7.176C4.50629 6.26931 4.86926 5.40154 5.5104 4.7604ZM41.34 17.217V28.8071C41.2167 28.8694 41.0955 28.9391 40.9769 29.0161C39.3538 30.0705 38.7907 32.1431 39.5818 33.8495L30.3101 39.8723C29.0726 38.4558 26.9501 38.1278 25.3269 39.1821C24.6185 39.6423 24.112 40.2965 23.8319 41.0295H13.5068C13.3692 41.0331 13.2323 41.0087 13.1045 40.9576C12.9766 40.9065 12.8606 40.8299 12.7634 40.7325C12.6662 40.6351 12.5898 40.5189 12.539 40.3909C12.4882 40.263 12.4641 40.1261 12.468 39.9885V17.217C12.468 16.9007 12.3424 16.5974 12.1187 16.3738C11.8951 16.1501 11.5918 16.0245 11.2755 16.0245H7.926C7.78842 16.0284 7.65148 16.0043 7.52356 15.9535C7.39563 15.9027 7.27941 15.8263 7.18198 15.7291C7.08455 15.6319 7.00796 15.5159 6.9569 15.388C6.90584 15.2602 6.88138 15.1233 6.885 14.9858V7.176C6.88139 7.03831 6.90585 6.90133 6.95689 6.77339C7.00792 6.64546 7.08447 6.52926 7.18186 6.43186C7.27926 6.33447 7.39546 6.25792 7.52339 6.20689C7.65133 6.15585 7.78831 6.13139 7.926 6.135H19.2548C19.5003 7.99 20.4116 9.69257 21.8188 10.9258C23.2261 12.1591 25.0336 12.839 26.9047 12.839C28.7759 12.839 30.5834 12.1591 31.9907 10.9258C33.3979 9.69257 34.3092 7.99 34.5548 6.135H45.882C46.0197 6.13139 46.1567 6.15585 46.2846 6.20689C46.4125 6.25792 46.5287 6.33447 46.6261 6.43186C46.7235 6.52926 46.8001 6.64546 46.8511 6.77339C46.9022 6.90133 46.9266 7.03831 46.923 7.176V14.9858C46.9266 15.1233 46.9022 15.2602 46.8511 15.388C46.8 15.5159 46.7234 15.6319 46.626 15.7291C46.5286 15.8263 46.4124 15.9027 46.2844 15.9535C46.1565 16.0043 46.0196 16.0284 45.882 16.0245H42.5325C42.3759 16.0245 42.2208 16.0553 42.0761 16.1153C41.9315 16.1752 41.8 16.263 41.6893 16.3738C41.5785 16.4845 41.4907 16.616 41.4308 16.7607C41.3708 16.9053 41.34 17.0604 41.34 17.217ZM49.2646 30.6914C54.1494 27.5183 60.6816 28.9058 63.8545 33.7904C67.0275 38.6751 65.6398 45.2071 60.755 48.3803L58.4024 49.9084C57.251 49.3909 55.8684 49.4509 54.7311 50.1897C53.5937 50.9286 52.9769 52.1673 52.9816 53.4297L42.7523 60.0744C41.6009 59.5569 40.2184 59.617 39.0811 60.3558C37.9437 61.0946 37.3268 62.3333 37.3316 63.5957L35.8996 64.5259C31.0147 67.699 24.4826 66.3115 21.3097 61.4268C18.1367 56.5422 19.5244 50.0102 24.4092 46.837L25.8411 45.9069C26.9925 46.4245 28.3751 46.3645 29.5125 45.6257C30.6499 44.8868 31.2668 43.648 31.2619 42.3856L41.4912 35.7409C42.6426 36.2584 44.0252 36.1984 45.1625 35.4596C46.2999 34.7208 46.9168 33.482 46.912 32.2196L49.2646 30.6914ZM44.0891 31.5757C43.7234 31.0127 42.9705 30.8527 42.4076 31.2184C41.8446 31.5842 41.6846 32.337 42.0503 32.9C42.4161 33.463 43.1689 33.6229 43.7319 33.2572C44.2949 32.8915 44.4548 32.1386 44.0891 31.5757ZM57.8433 52.7493C57.4776 52.1863 56.7247 52.0264 56.1617 52.3921C55.5987 52.7578 55.4388 53.5107 55.8045 54.0737C56.1702 54.6367 56.9231 54.7966 57.4861 54.4309C58.049 54.0652 58.209 53.3123 57.8433 52.7493ZM26.7575 41.3845C27.3205 41.0188 28.0734 41.1787 28.4391 41.7417C28.8048 42.3047 28.6449 43.0576 28.0819 43.4233C27.5189 43.789 26.766 43.6291 26.4003 43.0661C26.0346 42.5031 26.1945 41.7502 26.7575 41.3845ZM42.1932 62.9153C41.8275 62.3524 41.0747 62.1924 40.5117 62.5581C39.9487 62.9239 39.7888 63.6767 40.1545 64.2397C40.5202 64.8027 41.273 64.9626 41.836 64.5969C42.399 64.2312 42.5589 63.4783 42.1932 62.9153Z" fill="black"/>
</svg>
