<svg width="79" height="42" viewBox="0 0 79 42" fill="none" xmlns="http://www.w3.org/2000/svg">
<path d="M17.1362 28.9889C16.2807 29.2343 15.5171 29.7278 14.942 30.4071C14.367 31.0863 14.0063 31.9209 13.9055 32.8052C13.8048 33.6895 13.9685 34.5838 14.376 35.3751C14.7835 36.1663 15.4165 36.8189 16.195 37.2504C16.9734 37.6819 17.8623 37.8729 18.7492 37.7992C19.6362 37.7255 20.4814 37.3904 21.1779 36.8364C21.8744 36.2823 22.391 35.5342 22.6624 34.6865C22.9337 33.8389 22.9476 32.9298 22.7023 32.0742C22.3705 30.9288 21.5988 29.9613 20.5558 29.3832C19.5129 28.805 18.2834 28.6633 17.1362 28.9889V28.9889ZM18.7771 34.7113C18.5019 34.7892 18.2099 34.7839 17.9378 34.696C17.6656 34.6081 17.4256 34.4416 17.248 34.2175C17.0704 33.9934 16.9631 33.7217 16.9397 33.4367C16.9162 33.1517 16.9777 32.8662 17.1163 32.616C17.255 32.3659 17.4646 32.1625 17.7187 32.0313C17.9728 31.9002 18.26 31.8472 18.5442 31.8791C18.8284 31.911 19.0968 32.0263 19.3155 32.2105C19.5342 32.3947 19.6935 32.6395 19.7733 32.9141C19.8265 33.0975 19.8428 33.2896 19.8215 33.4794C19.8001 33.6692 19.7415 33.8528 19.6489 34.0199C19.5563 34.1869 19.4316 34.3339 19.282 34.4526C19.1324 34.5713 18.9608 34.6592 18.7771 34.7113Z" fill="black"/>
<path d="M59.5742 16.8201C58.7187 17.0654 57.9551 17.5589 57.38 18.2382C56.805 18.9175 56.4443 19.7521 56.3435 20.6364C56.2428 21.5207 56.4065 22.415 56.814 23.2062C57.2215 23.9975 57.8545 24.6501 58.6329 25.0816C59.4114 25.5131 60.3003 25.704 61.1872 25.6303C62.0742 25.5566 62.9194 25.2216 63.6159 24.6675C64.3124 24.1135 64.829 23.3653 65.1004 22.5177C65.3717 21.67 65.3856 20.761 65.1403 19.9054C64.8092 18.7595 64.0376 17.7915 62.9944 17.2133C61.9512 16.635 60.7214 16.4936 59.5742 16.8201V16.8201ZM61.2151 22.5425C60.94 22.6208 60.6478 22.6158 60.3755 22.5282C60.1032 22.4406 59.8629 22.2744 59.685 22.0504C59.5071 21.8264 59.3995 21.5547 59.3758 21.2697C59.3521 20.9846 59.4134 20.6989 59.5519 20.4486C59.6904 20.1984 59.9 19.9947 60.1541 19.8634C60.4082 19.7321 60.6955 19.679 60.9798 19.7107C61.2641 19.7425 61.5326 19.8578 61.7514 20.042C61.9702 20.2263 62.1296 20.4712 62.2094 20.7458C62.2625 20.9291 62.2789 21.121 62.2576 21.3106C62.2363 21.5002 62.1778 21.6838 62.0854 21.8507C61.993 22.0176 61.8686 22.1647 61.7192 22.2834C61.5699 22.4021 61.3986 22.4902 61.2151 22.5425Z" fill="black"/>
<path d="M69.8293 1.53526C69.0506 3.17611 67.9316 4.63243 66.5466 5.80746C65.1616 6.9825 63.5425 7.84933 61.7967 8.35037L13.1588 22.2971C11.4125 22.7977 9.57966 22.9208 7.78212 22.6583C5.98458 22.3959 4.2635 21.7538 2.73328 20.7748C2.56431 20.6626 2.37468 20.5852 2.17548 20.5471C1.97627 20.509 1.77147 20.511 1.57304 20.5529C1.3746 20.5949 1.18651 20.6759 1.01974 20.7913C0.852971 20.9068 0.710865 21.0542 0.601719 21.2252C0.492573 21.3961 0.418574 21.5871 0.384042 21.787C0.349509 21.9868 0.355136 22.1915 0.400593 22.3892C0.44605 22.5869 0.530427 22.7735 0.648797 22.9382C0.767167 23.1028 0.91716 23.2423 1.09002 23.3484C2.98562 24.5609 5.11752 25.3562 7.34412 25.6815C9.57072 26.0067 11.841 25.8545 14.0043 25.2348L62.6441 11.2876C64.8061 10.6669 66.8112 9.59311 68.5262 8.13761C70.2411 6.68212 71.6266 4.87826 72.5906 2.84594C72.6766 2.66457 72.7261 2.46803 72.7362 2.26754C72.7463 2.06705 72.7168 1.86654 72.6494 1.67745C72.582 1.48836 72.478 1.3144 72.3433 1.1655C72.2087 1.0166 72.0461 0.89568 71.8647 0.809639C71.6833 0.723597 71.4868 0.674122 71.2863 0.664036C71.0858 0.65395 70.8853 0.683454 70.6962 0.750859C70.5071 0.818264 70.3332 0.922252 70.1843 1.05689C70.0354 1.19153 69.9144 1.35417 69.8284 1.53554L69.8293 1.53526Z" fill="black"/>
</svg>
