<svg width="50" height="60" viewBox="0 0 50 60" fill="none" xmlns="http://www.w3.org/2000/svg">
<g clip-path="url(#clip0_3802_5520)">
<path d="M47.8457 1.15802H42.8097C42.4758 1.15802 42.1555 1.29066 41.9194 1.52677C41.6833 1.76288 41.5507 2.08311 41.5507 2.41702V3.67602H38.8207C38.5594 2.94003 38.0768 2.30292 37.439 1.8521C36.8013 1.40127 36.0397 1.15883 35.2587 1.15802H27.7007C26.9197 1.15883 26.1581 1.40127 25.5203 1.8521C24.8826 2.30292 24.4 2.94003 24.1387 3.67602H20.1467C18.4758 3.67602 16.8734 4.33977 15.6919 5.52125C14.5104 6.70273 13.8467 8.30516 13.8467 9.97602C13.8467 10.1414 13.8792 10.3051 13.9425 10.4578C14.0058 10.6106 14.0985 10.7494 14.2154 10.8663C14.3323 10.9832 14.4711 11.0759 14.6239 11.1392C14.7766 11.2025 14.9403 11.235 15.1057 11.235H24.1347C24.396 11.971 24.8786 12.6081 25.5163 13.0589C26.1541 13.5098 26.9157 13.7522 27.6967 13.753V55.302C27.6967 56.3037 28.0946 57.2644 28.8029 57.9728C29.5112 58.6811 30.4719 59.079 31.4737 59.079C32.4754 59.079 33.4361 58.6811 34.1444 57.9728C34.8527 57.2644 35.2507 56.3037 35.2507 55.302V13.749C36.0317 13.7482 36.7933 13.5058 37.431 13.0549C38.0688 12.6041 38.5514 11.967 38.8127 11.231H41.5457V12.485C41.5457 12.8189 41.6783 13.1392 41.9144 13.3753C42.1505 13.6114 42.4708 13.744 42.8047 13.744H47.8407C48.1746 13.744 48.4948 13.6114 48.7309 13.3753C48.967 13.1392 49.0997 12.8189 49.0997 12.485V2.41702C49.0997 2.08397 48.9677 1.7645 48.7327 1.52853C48.4977 1.29257 48.1787 1.15934 47.8457 1.15802ZM32.7367 55.298C32.7367 55.6319 32.604 55.9522 32.3679 56.1883C32.1318 56.4244 31.8116 56.557 31.4777 56.557C31.1438 56.557 30.8235 56.4244 30.5874 56.1883C30.3513 55.9522 30.2187 55.6319 30.2187 55.298V13.749H32.7367V55.298ZM46.5867 11.231H44.0687V9.97102C44.0687 9.63711 43.936 9.31688 43.6999 9.08077C43.4638 8.84466 43.1436 8.71202 42.8097 8.71202H37.7737C37.4398 8.71202 37.1195 8.84466 36.8834 9.08077C36.6473 9.31688 36.5147 9.63711 36.5147 9.97102C36.5144 10.3048 36.3817 10.6249 36.1456 10.861C35.9096 11.097 35.5895 11.2298 35.2557 11.23H27.7007C27.3669 11.2298 27.0468 11.097 26.8107 10.861C26.5747 10.6249 26.4419 10.3048 26.4417 9.97102C26.4417 9.63711 26.309 9.31688 26.0729 9.08077C25.8368 8.84466 25.5166 8.71202 25.1827 8.71202H16.5827C16.844 7.97603 17.3266 7.33892 17.9643 6.8881C18.6021 6.43728 19.3637 6.19483 20.1447 6.19402H25.1807C25.5146 6.19402 25.8348 6.06137 26.0709 5.82526C26.307 5.58916 26.4397 5.26893 26.4397 4.93502C26.4399 4.60119 26.5727 4.28111 26.8087 4.04506C27.0448 3.80901 27.3648 3.67628 27.6987 3.67602H35.2527C35.5865 3.67628 35.9066 3.80901 36.1426 4.04506C36.3787 4.28111 36.5114 4.60119 36.5117 4.93502C36.5117 5.26893 36.6443 5.58916 36.8804 5.82526C37.1165 6.06137 37.4368 6.19402 37.7707 6.19402H42.8067C43.1406 6.19402 43.4608 6.06137 43.6969 5.82526C43.933 5.58916 44.0657 5.26893 44.0657 4.93502V3.67602H46.5837L46.5867 11.231Z" fill="black"/>
<path d="M23.0038 15.154C22.3421 15.8548 21.5866 16.4606 20.7588 16.954C19.4374 17.7604 18.3549 18.9044 17.6225 20.2681C16.8901 21.6318 16.5343 23.1661 16.5918 24.713L17.4708 52.825C17.4871 53.3104 17.4051 53.794 17.2296 54.2469C17.0541 54.6997 16.7889 55.1124 16.4498 55.46C15.7564 56.1423 14.8226 56.5247 13.8498 56.5247C12.877 56.5247 11.9432 56.1423 11.2498 55.46C10.9106 55.1124 10.6454 54.6997 10.4699 54.2469C10.2944 53.794 10.2124 53.3104 10.2288 52.825L11.1088 24.713C11.1656 23.1661 10.8095 21.632 10.0769 20.2683C9.34439 18.9046 8.26191 17.7607 6.94077 16.954C4.13077 15.264 2.51877 12.72 2.51877 9.97501C2.56978 8.65833 2.94025 7.37382 3.59825 6.23221C4.25625 5.0906 5.18202 4.12615 6.29576 3.422V9.97501C6.29586 10.1924 6.35217 10.4061 6.45923 10.5954C6.56629 10.7846 6.72046 10.9429 6.90677 11.055L13.2068 14.832C13.3485 14.9174 13.5057 14.974 13.6693 14.9986C13.833 15.0232 13.9999 15.0153 14.1605 14.9754C14.3211 14.9356 14.4722 14.8644 14.6053 14.7661C14.7385 14.6678 14.8509 14.5443 14.9363 14.4025C15.0216 14.2607 15.0782 14.1036 15.1028 13.9399C15.1274 13.7763 15.1196 13.6094 15.0797 13.4488C15.0398 13.2882 14.9687 13.137 14.8704 13.0039C14.7721 12.8708 14.6485 12.7584 14.5068 12.673L8.82277 9.26201V1.26201C8.82288 1.05092 8.76992 0.843187 8.66875 0.65792C8.56758 0.472652 8.42144 0.315792 8.24379 0.201773C8.06614 0.0877553 7.86269 0.0202362 7.65211 0.00542334C7.44154 -0.00938947 7.23062 0.0289788 7.03876 0.117003C2.70376 2.104 0.00976562 5.88101 0.00976562 9.97401C0.078041 11.8554 0.634172 13.6867 1.62363 15.2884C2.61308 16.89 4.00187 18.2069 5.65376 19.11C6.59116 19.6857 7.35827 20.5008 7.87622 21.4713C8.39417 22.4418 8.64427 23.5328 8.60077 24.632L7.72276 52.744C7.69495 53.5673 7.8331 54.3878 8.12897 55.1566C8.42484 55.9254 8.87237 56.6268 9.44495 57.219C10.0175 57.8112 10.7034 58.2822 11.4618 58.6039C12.2201 58.9255 13.0355 59.0913 13.8593 59.0913C14.683 59.0913 15.4984 58.9255 16.2567 58.6039C17.0151 58.2822 17.701 57.8112 18.2736 57.219C18.8461 56.6268 19.2937 55.9254 19.5896 55.1566C19.8854 54.3878 20.0236 53.5673 19.9958 52.744L19.1178 24.632C19.0743 23.5329 19.3243 22.442 19.842 21.4715C20.3598 20.501 21.1266 19.6859 22.0638 19.11C23.0905 18.4983 24.028 17.7479 24.8498 16.88C25.0741 16.6358 25.1931 16.313 25.1808 15.9816C25.1686 15.6502 25.0261 15.337 24.7843 15.1101C24.5424 14.8832 24.2209 14.7608 23.8894 14.7696C23.5579 14.7784 23.2432 14.9176 23.0138 15.157L23.0038 15.154Z" fill="black"/>
<path d="M15.1117 52.779C15.1117 53.028 15.0379 53.2714 14.8996 53.4785C14.7612 53.6855 14.5646 53.8469 14.3346 53.9422C14.1045 54.0375 13.8514 54.0624 13.6071 54.0138C13.3629 53.9652 13.1386 53.8454 12.9625 53.6693C12.7864 53.4932 12.6665 53.2689 12.6179 53.0247C12.5694 52.7804 12.5943 52.5273 12.6896 52.2972C12.7849 52.0672 12.9462 51.8705 13.1533 51.7322C13.3603 51.5939 13.6037 51.52 13.8527 51.52C14.1866 51.52 14.5069 51.6527 14.743 51.8888C14.9791 52.1249 15.1117 52.4451 15.1117 52.779Z" fill="black"/>
</g>
<defs>
<clipPath id="clip0_3802_5520">
<rect width="49.104" height="59.075" fill="white"/>
</clipPath>
</defs>
</svg>
