<svg width="72" height="72" viewBox="0 0 72 72" fill="none" xmlns="http://www.w3.org/2000/svg">
<path d="M52.9628 31.8817L52.1318 30.8152L57.7276 24.4784C58.2612 23.859 58.9519 23.3946 59.7269 23.1341C60.5019 22.8736 61.3328 22.8266 62.1323 22.9979C62.3676 23.0491 62.6058 23.0862 62.8456 23.1089C63.4828 23.1942 64.1311 23.1301 64.7393 22.9219C65.3476 22.7136 65.8991 22.3669 66.3503 21.9089C66.8079 21.3851 67.1307 20.7575 67.2908 20.0806C67.4509 19.4037 67.4435 18.698 67.2691 18.0247L64.8998 20.5447C64.8317 20.6186 64.7475 20.6758 64.6537 20.7121C64.56 20.7484 64.4592 20.7627 64.3591 20.7539C64.3311 20.7515 64.3033 20.7473 64.2758 20.7412L60.7006 19.9649C60.6698 19.9668 60.639 19.9668 60.6083 19.9649C60.4608 19.9517 60.3216 19.8909 60.2116 19.7917L60.2056 19.7834L60.1996 19.7759L60.1913 19.7692L60.1808 19.7609L60.1741 19.7564C60.1096 19.6952 60.0583 19.6216 60.0231 19.54C59.9879 19.4584 59.9696 19.3706 59.9693 19.2817L58.9696 15.7612C58.9389 15.651 58.9366 15.5349 58.9628 15.4236C58.989 15.3122 59.0429 15.2093 59.1196 15.1244L61.4903 12.6044C61.3951 12.5909 61.2931 12.5774 61.1903 12.5677C60.551 12.4869 59.9017 12.553 59.2918 12.761C58.6819 12.9689 58.1274 13.3132 57.6706 13.7677C57.1715 14.3464 56.8331 15.0459 56.6891 15.7963C56.5451 16.5468 56.6006 17.3219 56.8501 18.0442C57.067 18.8314 57.0701 19.6622 56.8592 20.4511C56.6483 21.2399 56.2309 21.9583 55.6501 22.5322L50.0918 28.0882L49.4971 26.8042L54.7133 21.5947C55.1264 21.1868 55.4238 20.6767 55.5752 20.1163C55.7266 19.5559 55.7266 18.9653 55.5751 18.4049C55.2669 17.4611 55.209 16.4534 55.4073 15.4805C55.6056 14.5076 56.0531 13.6029 56.7061 12.8549C57.3 12.2549 58.0231 11.7984 58.8203 11.5203C59.6174 11.2421 60.4675 11.1497 61.3058 11.2499C61.872 11.3033 62.43 11.4223 62.9686 11.6047C63.059 11.6346 63.1419 11.6837 63.2116 11.7487C63.3042 11.8363 63.3707 11.948 63.4036 12.0712C63.4295 12.1791 63.4282 12.2918 63.3996 12.399C63.3711 12.5063 63.3162 12.6047 63.2401 12.6854L60.3511 15.7604L61.1873 18.7192L64.1873 19.3694L67.0763 16.2944C67.1453 16.2207 67.2302 16.1638 67.3246 16.128C67.419 16.0923 67.5203 16.0786 67.6208 16.0882L67.6823 16.0942C67.8083 16.1193 67.925 16.1784 68.0198 16.2652C68.0876 16.3306 68.1412 16.4092 68.1773 16.4962C68.6575 17.5224 68.8319 18.6652 68.6796 19.7879C68.5273 20.9107 68.0548 21.9657 67.3186 22.8269C66.722 23.4286 65.9956 23.8859 65.1951 24.1637C64.3946 24.4415 63.5412 24.5325 62.7001 24.4297C62.4126 24.4033 62.1271 24.3593 61.8451 24.2977C61.7213 24.2712 61.5961 24.2521 61.4701 24.2407C60.9554 24.1977 60.4378 24.2763 59.9591 24.4703C59.4804 24.6643 59.0541 24.9682 58.7146 25.3574L52.9531 31.8824L52.9628 31.8817Z" fill="black" stroke="black" stroke-width="0.75"/>
<path d="M19.5 31.0247V67.875C19.5 68.2892 19.8358 68.625 20.25 68.625H29.4525C29.7787 68.625 30.0675 68.4142 30.1669 68.1036L36 49.875L42.2021 68.1164C42.3055 68.4205 42.591 68.625 42.9122 68.625H52.125C52.5392 68.625 52.875 68.2892 52.875 67.875V31.0799C52.875 30.8697 52.7868 30.6721 52.6405 30.5212C51.0838 28.9156 48.375 24.4667 48.375 17.625H36H23.625C23.625 23.9598 21.0915 28.7285 19.6721 30.5384C19.5626 30.678 19.5 30.8473 19.5 31.0247Z" stroke="black" stroke-width="2.25" stroke-linejoin="round"/>
<path d="M44.25 31.125H27.75V37.5C27.75 39.5711 29.4289 41.25 31.5 41.25H40.5C42.5711 41.25 44.25 39.5711 44.25 37.5V31.125Z" stroke="black" stroke-width="2.25"/>
<path d="M23.625 3.75V17.625H27V3.75C27 3.33579 26.6642 3 26.25 3H24.375C23.9608 3 23.625 3.33579 23.625 3.75Z" stroke="black" stroke-width="2.25"/>
<path d="M45 3.75V17.625H48.375V3.75C48.375 3.33579 48.0392 3 47.625 3H45.75C45.3358 3 45 3.33579 45 3.75Z" stroke="black" stroke-width="2.25"/>
</svg>
